<?xml version="1.0" encoding="utf-8"?>
<!-- Generator: Adobe Illustrator 23.0.3, SVG Export Plug-In . SVG Version: 6.00 Build 0)  -->
<svg version="1.1" id="Calque_1" xmlns="http://www.w3.org/2000/svg" xmlns:xlink="http://www.w3.org/1999/xlink" x="0px" y="0px"
	 viewBox="0 0 30 23" style="enable-background:new 0 0 30 23;" xml:space="preserve">
<style type="text/css">
	.st0{fill-rule:evenodd;clip-rule:evenodd;}
</style>
<path class="st0" d="M1.5,0h27C29.3,0,30,1,30,2.2l0,0c0,1.2-0.7,2.2-1.5,2.2h-27C0.7,4.5,0,3.5,0,2.2l0,0C0,1,0.7,0,1.5,0z"/>
<path class="st0" d="M1.3,8.9h23.4c0.7,0,1.3,1,1.3,2.2l0,0c0,1.2-0.6,2.2-1.3,2.2H1.3c-0.7,0-1.3-1-1.3-2.2l0,0
	C0,9.9,0.6,8.9,1.3,8.9z"/>
<path class="st0" d="M1.1,18.5h20.5c0.6,0,1.1,1,1.1,2.2l0,0c0,1.2-0.5,2.2-1.1,2.2H1.1C0.5,23,0,22,0,20.8l0,0
	C0,19.5,0.5,18.5,1.1,18.5z"/>
</svg>
