<?xml version="1.0" encoding="utf-8"?>
<!-- Generator: Adobe Illustrator 23.0.3, SVG Export Plug-In . SVG Version: 6.00 Build 0)  -->
<svg version="1.1" id="Calque_1" xmlns="http://www.w3.org/2000/svg" xmlns:xlink="http://www.w3.org/1999/xlink" x="0px" y="0px"
	 viewBox="0 0 7.8 7.8" style="enable-background:new 0 0 7.8 7.8;" xml:space="preserve">
<style type="text/css">
	.st0{fill:#FFFFF5;}
</style>
<title>Fichier 3</title>
<g>
	<g id="Calque_1-2">
		<path class="st0" d="M3.9,0C1.7,0,0,1.7,0,3.9s1.7,3.9,3.9,3.9S7.8,6,7.8,3.9l0,0C7.8,1.7,6,0,3.9,0L3.9,0z M6.2,6.2
			C6,6.4,5.7,6.4,5.5,6.2l0,0L3.9,4.6L2.2,6.2C2,6.4,1.7,6.4,1.5,6.2l0,0C1.4,6,1.4,5.7,1.5,5.5l0,0l1.7-1.7L1.5,2.2
			C1.4,2,1.4,1.7,1.5,1.5s0.5-0.2,0.7,0l1.7,1.6l1.7-1.6c0.2-0.2,0.5-0.2,0.7,0s0.2,0.5,0,0.7L4.6,3.9l1.7,1.7
			C6.4,5.7,6.4,6,6.2,6.2L6.2,6.2z"/>
	</g>
</g>
</svg>
